<svg version="1.1" id="Layer_1" xmlns="http://www.w3.org/2000/svg" xmlns:xlink="http://www.w3.org/1999/xlink" x="0px" y="0px"
	 width="100%" viewBox="0 0 1024 672" enable-background="new 0 0 1024 672" xml:space="preserve">
<path fill="#000000" opacity="1.000000" stroke="none" 
	d="
M250.851746,461.104584 
	C234.714859,439.251678 226.569702,415.258118 228.801941,388.309875 
	C230.680313,365.633575 240.171997,346.038788 254.628952,328.761383 
	C274.468994,305.050720 299.938995,289.307220 328.087372,277.466888 
	C343.477661,270.993073 359.366577,266.078705 375.702301,262.609344 
	C377.464752,262.235016 379.190521,261.688141 381.410339,261.093506 
	C378.884613,251.436417 375.897156,242.284470 374.227661,232.812180 
	C368.972717,202.996796 370.284302,173.998672 385.749664,147.069458 
	C401.791626,119.136292 426.918427,103.720192 457.659393,96.741776 
	C491.190582,89.129951 524.215637,92.984344 556.788086,102.360435 
	C604.726196,116.159599 646.541992,140.963715 683.691772,173.943649 
	C713.797791,200.670380 738.607666,231.557159 756.362183,267.813080 
	C769.099609,293.823761 777.371338,321.186523 777.105835,350.370941 
	C776.585388,407.576324 741.663513,446.288391 688.475769,457.259583 
	C679.660339,459.077972 670.779419,460.449280 661.744812,460.334717 
	C659.138916,460.301666 657.482056,461.363403 655.989746,463.495361 
	C632.786255,496.642883 601.015747,517.491882 562.598206,529.189514 
	C540.888733,535.799744 519.021301,541.396484 496.451752,543.956909 
	C472.547363,546.668701 448.637146,546.820557 424.662231,544.480652 
	C393.804199,541.468994 363.891205,534.706238 335.236084,522.817261 
	C302.258026,509.134766 272.976257,490.284637 250.851746,461.104584 
M552.811890,178.301392 
	C553.794189,178.776321 554.776428,179.251236 556.291016,180.212601 
	C559.609558,182.125488 562.901672,184.086121 566.250671,185.944077 
	C610.537659,210.513367 648.688049,242.290237 679.442017,282.664276 
	C696.130554,304.573212 709.515503,328.260193 716.755127,355.059448 
	C719.806763,366.355957 721.914429,377.825409 720.943970,389.588562 
	C720.727966,392.206726 723.876404,394.491241 721.509766,397.056793 
	C719.569092,399.160370 719.246887,401.834167 718.586304,404.381866 
	C713.839417,422.688538 702.978088,436.110901 686.354065,444.986816 
	C680.019775,448.368805 673.245911,450.563385 666.331909,452.490234 
	C671.653320,451.787292 676.973145,451.340302 682.205933,450.510040 
	C693.443176,448.727020 704.061035,446.205658 711.348267,435.572357 
	C718.621826,424.959045 723.461426,413.851959 724.678406,401.107178 
	C724.890259,398.888306 724.655762,396.392365 728.114868,394.997681 
	C730.883057,403.499084 728.554260,411.232544 726.063416,418.897400 
	C723.551208,426.628113 719.167175,433.397858 713.857300,440.639130 
	C733.845581,431.048706 748.572388,417.331512 758.203003,398.383698 
	C771.052551,373.102661 771.355957,346.448364 766.039124,319.411102 
	C760.225159,289.846222 747.534607,263.081848 730.359253,238.596588 
	C687.886475,178.047348 631.746948,135.239655 561.468201,111.805717 
	C529.854248,101.264267 497.273285,96.975159 464.052704,103.353455 
	C434.519714,109.023750 409.934692,122.629440 393.665741,148.902924 
	C390.629883,153.805634 387.943298,158.902420 386.141022,165.816879 
	C395.985413,159.436646 405.402802,154.873413 416.299164,154.352509 
	C413.992065,156.670181 411.358429,158.267349 408.668640,159.763550 
	C402.265045,163.325607 395.678131,166.594528 389.944244,171.235352 
	C385.093658,175.161270 380.786896,179.358597 380.372009,186.263031 
	C379.983063,192.736099 378.800293,199.163071 379.493958,206.327484 
	C379.870087,205.225983 380.091156,204.665390 380.254272,204.088409 
	C386.940369,180.438217 402.514069,165.645142 425.720032,158.457336 
	C448.067993,151.535263 470.462585,153.686569 492.915802,157.944519 
	C504.247223,160.093384 515.053955,164.039291 526.752441,167.325943 
	C529.726624,168.536911 532.700745,169.747864 536.273743,171.396225 
	C541.433960,174.054932 546.637512,176.608887 552.811890,178.301392 
M629.236938,395.615143 
	C632.743164,399.833282 636.370728,403.957672 639.721619,408.295746 
	C643.091736,412.658722 645.521729,417.610107 647.971008,422.539551 
	C650.338867,427.304993 651.484558,432.444153 652.768372,438.513672 
	C653.547424,428.647095 649.446167,420.667694 648.149231,412.074982 
	C655.435364,419.526428 658.020874,428.865448 659.428711,439.862885 
	C660.925659,417.925201 651.734619,401.329559 638.600403,386.160980 
	C653.048401,395.297485 661.013672,408.599030 664.668884,425.054749 
	C665.540283,417.470337 662.150635,410.694092 661.395081,402.770508 
	C665.489563,404.669342 665.300903,408.655701 667.604126,410.990265 
	C669.798950,386.342651 661.945312,365.027679 647.987000,345.654358 
	C632.565796,324.250702 612.119934,308.658081 589.123718,296.335693 
	C535.977356,267.857574 478.790497,259.811829 419.383820,263.452972 
	C416.565704,263.625702 413.757263,264.010834 410.955597,264.381897 
	C408.348602,264.727142 405.756653,265.185822 403.158081,265.594574 
	C404.048065,266.312897 404.852112,266.512756 405.668304,266.601379 
	C432.154083,269.478607 453.784424,280.362732 469.444763,302.835236 
	C487.092804,328.160126 513.436157,341.755066 541.598083,351.412659 
	C562.274841,358.503326 582.923157,365.257080 601.975708,376.180908 
	C607.014709,379.070038 611.416321,383.047302 617.411194,385.510864 
	C620.869141,389.176941 624.551880,392.566803 629.236938,395.615143 
M287.858826,398.662811 
	C287.016022,397.856781 286.241638,396.959137 285.314148,396.266510 
	C283.972382,395.264496 283.139923,392.785492 280.863220,394.120483 
	C278.997314,395.214661 277.330048,396.705383 277.297211,399.198090 
	C277.279663,400.530457 277.221191,401.869110 277.316864,403.195129 
	C278.151001,414.752960 281.830933,425.287537 288.522186,434.793884 
	C289.735687,436.517853 291.916565,438.196869 290.232025,441.431122 
	C282.358948,437.896820 279.324341,430.618713 275.684814,423.818512 
	C276.641937,429.642456 276.938293,435.455688 278.618622,441.068634 
	C280.284882,446.634644 283.818939,451.395966 285.200928,457.050507 
	C273.606079,446.370697 269.940338,432.500336 269.201996,417.406464 
	C267.309418,429.538971 268.673035,441.210114 273.832764,452.393158 
	C279.176849,463.975800 287.900391,472.455322 298.330811,479.455292 
	C300.339905,480.803619 303.324646,481.659363 303.137177,485.967072 
	C295.381470,485.072235 289.679504,480.998810 284.516785,476.137207 
	C267.009186,459.650635 260.972595,439.269989 264.593750,415.767975 
	C263.545959,415.753632 263.420410,416.516968 263.154419,417.076324 
	C262.511841,418.427582 261.839935,419.775238 261.335205,421.180176 
	C255.076019,438.603668 258.977600,454.547668 269.641174,468.746399 
	C287.202759,492.129913 312.137878,505.022278 338.690033,515.301758 
	C339.768341,515.719238 341.093842,516.242737 342.015747,515.336731 
	C344.090118,513.298340 345.344025,514.934387 346.543121,516.238037 
	C349.259613,519.191284 352.742340,520.573547 356.476868,521.670166 
	C381.164673,528.919739 406.341522,533.316956 432.015930,535.010437 
	C470.292572,537.535217 508.206696,535.516846 545.553040,526.208740 
	C555.582397,523.709045 565.623169,521.189270 573.696411,514.057983 
	C575.195435,512.733826 577.180359,512.279846 579.287537,512.267578 
	C584.719543,512.235962 598.694824,505.126953 602.282043,500.712463 
	C584.092957,508.565277 570.676697,511.988708 566.096313,509.907532 
	C566.627686,507.530823 568.861145,507.856445 570.432861,507.264984 
	C586.821106,501.098206 603.202698,494.930298 616.750854,483.284912 
	C633.095154,469.236206 642.268982,451.998444 640.763611,429.879547 
	C640.278015,422.744476 637.587585,416.835663 632.314087,411.694794 
	C624.001160,417.293030 615.813843,422.713623 606.955078,426.989380 
	C570.505615,444.582214 531.614014,452.177490 491.568207,454.049164 
	C449.751160,456.003662 408.414032,452.186249 368.088318,440.251923 
	C338.924866,431.621033 311.454071,419.620300 287.858826,398.662811 
M477.727600,256.660706 
	C480.703705,256.979279 483.681915,257.279785 486.655640,257.619263 
	C522.551514,261.716888 556.887451,271.169373 589.035095,287.875793 
	C614.169373,300.937439 636.330017,317.745239 653.473572,340.596130 
	C665.307373,356.369568 672.557190,374.072968 675.100769,393.639282 
	C675.434753,396.208923 676.057739,397.599091 679.006897,397.403931 
	C688.140381,396.799591 697.284912,396.555603 706.399597,395.442566 
	C711.477905,394.822449 712.855957,392.643616 712.984009,387.746552 
	C713.652405,362.183685 704.914185,339.359253 692.822021,317.571716 
	C673.209839,282.234680 646.349243,253.052765 614.911499,228.023392 
	C576.791077,197.673569 535.042908,174.480133 486.679108,164.773911 
	C473.186676,162.066086 459.577362,161.603256 445.909607,162.420441 
	C438.609985,162.856857 438.435608,163.329483 438.259338,170.376389 
	C437.573944,197.776535 444.820129,223.305954 456.051941,248.003860 
	C458.536591,253.467484 461.299957,256.834839 467.881622,255.867996 
	C470.759308,255.445282 473.828308,256.324799 477.727600,256.660706 
M384.536407,351.221283 
	C349.990112,356.916962 317.010498,366.656982 287.736969,387.842560 
	C289.662750,389.901215 290.841492,391.283478 292.145294,392.535553 
	C301.965576,401.965881 313.262756,409.298889 325.309875,415.489105 
	C365.010529,435.888611 407.732239,444.322205 451.843597,446.582520 
	C477.817749,447.913544 503.779144,446.927795 529.517334,442.674377 
	C537.219727,441.401489 545.005249,440.402618 553.522400,437.525848 
	C550.745972,436.177338 549.132080,435.356812 547.488403,434.601044 
	C535.212341,428.956451 523.448120,422.376495 512.024963,415.178345 
	C483.515564,397.213470 458.016846,375.696716 435.678558,350.448273 
	C434.063843,348.623169 432.681763,346.701416 429.579315,346.828613 
	C414.768585,347.435913 400.019470,348.545197 384.536407,351.221283 
M287.117889,308.645447 
	C280.905670,313.156616 275.211945,318.258972 269.734131,323.631836 
	C246.585159,346.337128 233.449295,373.039642 236.235519,406.283508 
	C237.011627,415.543640 240.662903,428.421387 244.554306,433.704010 
	C246.625046,414.921936 265.689362,383.704254 277.435608,380.340088 
	C276.985016,383.588654 274.512177,385.239655 272.627228,387.132050 
	C260.788239,399.017487 252.668427,412.987457 249.804489,429.554169 
	C248.672104,436.104584 247.354385,443.186890 252.457932,450.022949 
	C251.818466,444.083313 250.876419,439.048676 251.254608,433.874084 
	C252.320145,419.294769 258.537231,407.090820 268.072601,396.303925 
	C284.688141,377.507538 306.228058,366.575317 329.171295,357.867096 
	C354.083313,348.411621 379.964294,343.196381 406.416687,340.853485 
	C423.484802,339.341766 440.595276,338.219574 457.770203,339.561920 
	C463.157898,339.982971 468.606262,339.627533 474.077576,339.627533 
	C473.773956,338.201996 472.569641,338.274323 471.735504,337.896912 
	C449.146576,327.676270 427.886810,315.464691 410.031372,297.886627 
	C404.345276,292.288849 398.137268,287.192841 391.283051,282.991211 
	C379.214050,275.592896 366.032166,272.768311 352.489075,276.650452 
	C329.126770,283.347168 307.478210,293.973297 287.117889,308.645447 
M518.802551,405.658539 
	C534.654663,415.559906 551.161072,424.187897 568.504700,431.184540 
	C570.656372,432.052521 572.662231,432.774536 575.196838,431.938751 
	C592.207275,426.329498 608.434509,419.121460 623.242188,408.948212 
	C624.655884,407.976929 626.638000,407.409821 627.082397,404.924377 
	C622.138062,400.007660 617.370483,395.016327 610.090271,392.699097 
	C590.162109,386.355957 571.598694,376.994263 553.868530,365.931091 
	C549.527161,363.222229 545.532593,359.427643 540.149841,359.125122 
	C533.596313,358.756805 527.786926,355.818085 521.558167,354.502930 
	C499.381287,349.820221 476.954254,347.076111 454.251587,346.992340 
	C452.558502,346.986084 450.594757,346.299835 449.254150,348.087708 
	C455.638306,358.658539 492.247894,389.008698 518.802551,405.658539 
M434.351685,227.672272 
	C434.245331,228.303497 434.231812,229.448059 434.018219,229.486694 
	C431.836243,229.881516 431.854797,227.910980 431.348419,226.676331 
	C424.905823,210.967758 420.771393,194.796402 421.587128,177.632324 
	C421.726166,174.707062 421.606812,171.769501 421.606812,168.777832 
	C417.735016,169.062653 416.609314,170.440292 417.316345,173.746078 
	C418.400604,178.815491 418.543365,183.993637 417.512146,189.123596 
	C417.249084,190.432129 417.741547,192.324142 414.954712,192.586807 
	C412.786163,186.281952 413.016937,179.562454 412.669464,172.607071 
	C403.261200,178.103958 396.602448,185.365372 392.179382,194.616333 
	C383.023621,213.765640 384.829346,233.321304 389.939667,253.082779 
	C391.226776,258.060089 393.696899,259.431244 398.491791,258.561951 
	C408.984680,256.659607 419.600800,255.914017 430.261322,255.628906 
	C436.704437,255.456589 443.138733,254.954132 450.531281,254.547516 
	C436.940857,226.244659 429.299316,197.058762 429.430847,166.032730 
	C426.605957,186.741684 428.843201,206.972809 434.351685,227.672272 
M490.029236,331.504486 
	C478.565918,323.459625 469.507019,313.100098 461.615295,301.675751 
	C453.686096,290.197021 443.073059,282.271210 430.168518,277.262177 
	C414.897583,271.334534 398.922943,269.592407 382.704498,269.490356 
	C379.385559,269.469452 376.021179,269.792725 372.853699,271.421783 
	C387.384155,272.754486 398.476898,280.560364 408.675690,289.916107 
	C416.895477,297.456512 425.245667,304.857483 434.177612,311.508514 
	C452.808868,325.382080 473.896240,334.328735 495.946747,341.138153 
	C498.972351,342.072510 502.075989,343.673462 506.820740,341.997253 
	C500.633575,338.627472 495.330109,335.698853 490.029236,331.504486 
M689.583557,413.321655 
	C686.439209,413.555359 683.278015,414.107300 680.154785,413.941956 
	C676.272827,413.736420 674.822510,415.531158 674.354736,419.057922 
	C673.412476,426.162781 671.426941,433.012726 668.920410,439.720215 
	C668.498596,440.848907 667.418884,441.994934 668.773438,443.543701 
	C682.719421,439.493896 694.699585,432.661469 703.250061,419.631836 
	C686.961731,422.295380 684.285950,422.135315 681.625610,418.157471 
	C690.772461,416.744202 700.441467,417.278137 707.713806,410.580048 
	C701.942322,411.619080 696.329163,413.026581 689.583557,413.321655 
M640.721680,462.024506 
	C635.835938,471.798004 629.248596,480.330780 621.347168,487.909332 
	C634.684448,479.523682 642.232910,467.450104 644.497925,452.037415 
	C643.353516,455.139832 642.209045,458.242279 640.721680,462.024506 
M675.749023,407.318909 
	C676.152954,408.525879 677.182190,408.632324 678.180054,408.557678 
	C687.050964,407.893982 695.997986,407.644104 705.500366,403.687469 
	C696.000305,404.452057 687.686707,405.567841 679.297363,405.292145 
	C678.003540,405.249634 676.569580,405.125549 675.749023,407.318909 
z"/>
<path fill="#000000" opacity="1.000000" stroke="none" 
	d="
M526.441223,167.190613 
	C507.845093,159.293106 489.085297,153.375153 469.197876,151.236984 
	C454.971069,149.707428 440.979492,150.741241 427.023590,153.448044 
	C425.925262,153.661072 424.761749,154.231140 423.425018,153.023529 
	C424.825378,150.386200 427.615601,150.298782 429.978394,149.683121 
	C453.879395,143.455170 477.487549,145.849991 500.889130,152.394089 
	C522.174377,158.346359 542.084961,167.522354 561.111572,178.676117 
	C562.304810,179.375595 564.042175,179.649704 564.290649,181.863129 
	C561.264709,182.858643 559.143127,180.189575 556.140320,179.833191 
	C554.776428,179.251236 553.794189,178.776321 552.255371,177.959564 
	C546.543274,174.951096 541.376160,172.312408 535.674927,170.958832 
	C532.700745,169.747864 529.726624,168.536911 526.441223,167.190613 
z"/>
<path fill="#000000" opacity="1.000000" stroke="none" 
	d="
M724.244141,371.053345 
	C728.210938,376.556122 728.693481,383.757294 725.754333,387.904724 
	C722.612915,385.382050 721.536926,375.789307 724.244141,371.053345 
z"/>
<path fill="#000000" opacity="1.000000" stroke="none" 
	d="
M517.112793,522.150208 
	C519.597839,522.208374 521.904480,521.408813 523.440430,523.712769 
	C522.947388,526.625793 520.333862,526.577942 518.446472,526.938782 
	C501.558105,530.167786 484.531311,531.154724 467.378693,529.680847 
	C464.567291,529.439331 461.734985,529.421814 458.930115,529.130066 
	C457.061707,528.935730 454.892273,529.270020 453.029785,525.986511 
	C474.763367,525.776245 495.792114,524.848450 517.112793,522.150208 
z"/>
<path fill="#000000" opacity="1.000000" stroke="none" 
	d="
M343.899567,507.995667 
	C358.955841,511.688660 374.008850,513.777283 388.643738,518.657288 
	C386.927673,522.098145 384.718231,521.262634 382.916107,521.033936 
	C368.705017,519.230713 354.918121,515.414062 341.090485,511.859406 
	C337.929596,511.046844 334.692963,509.493774 333.158936,505.461975 
	C337.492462,504.502441 340.005615,508.276123 343.899567,507.995667 
z"/>
<path fill="#000000" opacity="1.000000" stroke="none" 
	d="
M547.661499,518.958252 
	C550.080200,519.417786 550.052551,520.753784 548.680176,521.645386 
	C545.360046,523.802368 541.836121,524.228210 537.844604,521.945923 
	C540.721130,518.774231 544.511841,520.560791 547.661499,518.958252 
z"/>
<path fill="#000000" opacity="1.000000" stroke="none" 
	d="
M629.267334,395.192474 
	C625.679688,391.200104 621.950256,387.877563 617.307617,385.128174 
	C616.706848,383.366211 616.163879,380.923248 619.014160,382.307709 
	C629.375488,387.340546 637.785339,394.595520 643.075256,405.050659 
	C643.319519,405.533478 643.037842,406.282379 642.933777,408.053772 
	C636.956055,404.682800 634.307739,398.813538 629.267334,395.192474 
z"/>
<path fill="#000000" opacity="1.000000" stroke="none" 
	d="
M396.248779,336.398376 
	C396.875824,339.478882 394.456909,340.660095 392.373352,341.014984 
	C377.172302,343.604431 362.000000,346.313080 346.976379,349.811218 
	C346.332001,349.961273 345.652069,349.814514 345.232880,348.633911 
	C345.952850,346.998138 347.834381,346.647736 349.428680,346.030701 
	C362.848114,340.837158 376.750916,337.996552 391.138245,337.460938 
	C392.758301,337.400635 394.357147,336.770538 396.248779,336.398376 
z"/>
<path fill="#000000" opacity="1.000000" stroke="none" 
	d="
M288.846069,371.560974 
	C293.760376,368.397369 298.120544,364.837769 303.621338,363.657104 
	C303.930634,364.195190 304.239929,364.733276 304.549194,365.271362 
	C298.854431,368.739716 293.159637,372.208069 287.335632,375.755096 
	C286.167480,373.186188 287.772278,372.679810 288.846069,371.560974 
z"/>
<path fill="#000000" opacity="1.000000" stroke="none" 
	d="
M409.233246,335.876953 
	C414.541992,335.272644 419.591217,334.867615 424.640411,334.462555 
	C420.553070,335.436554 417.060547,338.010071 412.994354,338.637634 
	C411.371979,338.888031 408.602692,339.568451 409.233246,335.876953 
z"/>
<path fill="#000000" opacity="1.000000" stroke="none" 
	d="
M545.822388,370.588379 
	C545.961792,369.864166 546.259277,369.086609 546.417664,369.113953 
	C551.289001,369.955231 555.489624,371.989624 558.471802,376.178467 
	C553.502014,376.217957 549.653809,373.695801 545.822388,370.588379 
z"/>
<path fill="#000000" opacity="1.000000" stroke="none" 
	d="
M420.203613,210.503174 
	C416.019989,206.811798 415.343628,202.247314 415.886139,196.905060 
	C419.691254,198.988998 421.663818,205.334076 420.203613,210.503174 
z"/>
</svg>